<svg width="1363" height="167" viewBox="0 0 1363 167" fill="none" xmlns="http://www.w3.org/2000/svg">
<rect width="1363" height="167" rx="15" fill="#F0F0F0"/>
<path d="M0 15C0 6.71573 6.71573 0 15 0H37V167H15C6.71573 167 0 160.284 0 152V15Z" fill="#424241"/>
<path d="M100.906 54.9219L93.3945 52.2383V49.0859L103.602 53.375V55.6367L100.906 54.9219ZM93.3945 57.1719L100.918 54.4297L103.602 53.7852V56.0352L93.3945 60.3242V57.1719ZM115.414 44.9375V62H111.898V44.9375H115.414ZM122.211 52.2266V54.9688H114.453V52.2266H122.211ZM123.031 44.9375V47.6914H114.453V44.9375H123.031ZM128.422 49.3203V62H125.035V49.3203H128.422ZM124.824 46.0156C124.824 45.5234 124.996 45.1172 125.34 44.7969C125.684 44.4766 126.145 44.3164 126.723 44.3164C127.293 44.3164 127.75 44.4766 128.094 44.7969C128.445 45.1172 128.621 45.5234 128.621 46.0156C128.621 46.5078 128.445 46.9141 128.094 47.2344C127.75 47.5547 127.293 47.7148 126.723 47.7148C126.145 47.7148 125.684 47.5547 125.34 47.2344C124.996 46.9141 124.824 46.5078 124.824 46.0156ZM137.422 49.3203V51.7109H130.039V49.3203H137.422ZM131.867 46.1914H135.242V58.1797C135.242 58.5469 135.289 58.8281 135.383 59.0234C135.484 59.2188 135.633 59.3555 135.828 59.4336C136.023 59.5039 136.27 59.5391 136.566 59.5391C136.777 59.5391 136.965 59.5312 137.129 59.5156C137.301 59.4922 137.445 59.4688 137.562 59.4453L137.574 61.9297C137.285 62.0234 136.973 62.0977 136.637 62.1523C136.301 62.207 135.93 62.2344 135.523 62.2344C134.781 62.2344 134.133 62.1133 133.578 61.8711C133.031 61.6211 132.609 61.2227 132.312 60.6758C132.016 60.1289 131.867 59.4102 131.867 58.5195V46.1914ZM142.648 52.0273V62H139.273V49.3203H142.438L142.648 52.0273ZM142.156 55.2148H141.242C141.242 54.2773 141.363 53.4336 141.605 52.6836C141.848 51.9258 142.188 51.2812 142.625 50.75C143.062 50.2109 143.582 49.8008 144.184 49.5195C144.793 49.2305 145.473 49.0859 146.223 49.0859C146.816 49.0859 147.359 49.1719 147.852 49.3438C148.344 49.5156 148.766 49.7891 149.117 50.1641C149.477 50.5391 149.75 51.0352 149.938 51.6523C150.133 52.2695 150.23 53.0234 150.23 53.9141V62H146.832V53.9023C146.832 53.3398 146.754 52.9023 146.598 52.5898C146.441 52.2773 146.211 52.0586 145.906 51.9336C145.609 51.8008 145.242 51.7344 144.805 51.7344C144.352 51.7344 143.957 51.8242 143.621 52.0039C143.293 52.1836 143.02 52.4336 142.801 52.7539C142.59 53.0664 142.43 53.4336 142.32 53.8555C142.211 54.2773 142.156 54.7305 142.156 55.2148ZM158.633 62.2344C157.648 62.2344 156.766 62.0781 155.984 61.7656C155.203 61.4453 154.539 61.0039 153.992 60.4414C153.453 59.8789 153.039 59.2266 152.75 58.4844C152.461 57.7344 152.316 56.9375 152.316 56.0938V55.625C152.316 54.6641 152.453 53.7852 152.727 52.9883C153 52.1914 153.391 51.5 153.898 50.9141C154.414 50.3281 155.039 49.8789 155.773 49.5664C156.508 49.2461 157.336 49.0859 158.258 49.0859C159.156 49.0859 159.953 49.2344 160.648 49.5312C161.344 49.8281 161.926 50.25 162.395 50.7969C162.871 51.3438 163.23 52 163.473 52.7656C163.715 53.5234 163.836 54.3672 163.836 55.2969V56.7031H153.758V54.4531H160.52V54.1953C160.52 53.7266 160.434 53.3086 160.262 52.9414C160.098 52.5664 159.848 52.2695 159.512 52.0508C159.176 51.832 158.746 51.7227 158.223 51.7227C157.777 51.7227 157.395 51.8203 157.074 52.0156C156.754 52.2109 156.492 52.4844 156.289 52.8359C156.094 53.1875 155.945 53.6016 155.844 54.0781C155.75 54.5469 155.703 55.0625 155.703 55.625V56.0938C155.703 56.6016 155.773 57.0703 155.914 57.5C156.062 57.9297 156.27 58.3008 156.535 58.6133C156.809 58.9258 157.137 59.168 157.52 59.3398C157.91 59.5117 158.352 59.5977 158.844 59.5977C159.453 59.5977 160.02 59.4805 160.543 59.2461C161.074 59.0039 161.531 58.6406 161.914 58.1562L163.555 59.9375C163.289 60.3203 162.926 60.6875 162.465 61.0391C162.012 61.3906 161.465 61.6797 160.824 61.9062C160.184 62.125 159.453 62.2344 158.633 62.2344ZM172.613 58.4961C172.613 58.2539 172.543 58.0352 172.402 57.8398C172.262 57.6445 172 57.4648 171.617 57.3008C171.242 57.1289 170.699 56.9727 169.988 56.832C169.348 56.6914 168.75 56.5156 168.195 56.3047C167.648 56.0859 167.172 55.8242 166.766 55.5195C166.367 55.2148 166.055 54.8555 165.828 54.4414C165.602 54.0195 165.488 53.5391 165.488 53C165.488 52.4688 165.602 51.9688 165.828 51.5C166.062 51.0312 166.395 50.6172 166.824 50.2578C167.262 49.8906 167.793 49.6055 168.418 49.4023C169.051 49.1914 169.762 49.0859 170.551 49.0859C171.652 49.0859 172.598 49.2617 173.387 49.6133C174.184 49.9648 174.793 50.4492 175.215 51.0664C175.645 51.6758 175.859 52.3711 175.859 53.1523H172.484C172.484 52.8242 172.414 52.5312 172.273 52.2734C172.141 52.0078 171.93 51.8008 171.641 51.6523C171.359 51.4961 170.992 51.418 170.539 51.418C170.164 51.418 169.84 51.4844 169.566 51.6172C169.293 51.7422 169.082 51.9141 168.934 52.1328C168.793 52.3438 168.723 52.5781 168.723 52.8359C168.723 53.0312 168.762 53.207 168.84 53.3633C168.926 53.5117 169.062 53.6484 169.25 53.7734C169.438 53.8984 169.68 54.0156 169.977 54.125C170.281 54.2266 170.656 54.3203 171.102 54.4062C172.016 54.5938 172.832 54.8398 173.551 55.1445C174.27 55.4414 174.84 55.8477 175.262 56.3633C175.684 56.8711 175.895 57.5391 175.895 58.3672C175.895 58.9297 175.77 59.4453 175.52 59.9141C175.27 60.3828 174.91 60.793 174.441 61.1445C173.973 61.4883 173.41 61.7578 172.754 61.9531C172.105 62.1406 171.375 62.2344 170.562 62.2344C169.383 62.2344 168.383 62.0234 167.562 61.6016C166.75 61.1797 166.133 60.6445 165.711 59.9961C165.297 59.3398 165.09 58.668 165.09 57.9805H168.289C168.305 58.4414 168.422 58.8125 168.641 59.0938C168.867 59.375 169.152 59.5781 169.496 59.7031C169.848 59.8281 170.227 59.8906 170.633 59.8906C171.07 59.8906 171.434 59.832 171.723 59.7148C172.012 59.5898 172.23 59.4258 172.379 59.2227C172.535 59.0117 172.613 58.7695 172.613 58.4961ZM184.297 49.3203V51.7109H176.914V49.3203H184.297ZM178.742 46.1914H182.117V58.1797C182.117 58.5469 182.164 58.8281 182.258 59.0234C182.359 59.2188 182.508 59.3555 182.703 59.4336C182.898 59.5039 183.145 59.5391 183.441 59.5391C183.652 59.5391 183.84 59.5312 184.004 59.5156C184.176 59.4922 184.32 59.4688 184.438 59.4453L184.449 61.9297C184.16 62.0234 183.848 62.0977 183.512 62.1523C183.176 62.207 182.805 62.2344 182.398 62.2344C181.656 62.2344 181.008 62.1133 180.453 61.8711C179.906 61.6211 179.484 61.2227 179.188 60.6758C178.891 60.1289 178.742 59.4102 178.742 58.5195V46.1914Z" fill="#888888"/>
<path d="M115.994 98.708V104.641H99.5806V98.708H115.994ZM102.151 86.0078V118H94.439V86.0078H102.151ZM121.18 86.0078V118H113.489V86.0078H121.18ZM124.805 106.354V105.893C124.805 104.15 125.054 102.546 125.552 101.081C126.05 99.6016 126.783 98.3198 127.75 97.2358C128.716 96.1519 129.91 95.3096 131.331 94.709C132.752 94.0938 134.393 93.7861 136.253 93.7861C138.128 93.7861 139.776 94.0938 141.197 94.709C142.632 95.3096 143.833 96.1519 144.8 97.2358C145.767 98.3198 146.5 99.6016 146.998 101.081C147.496 102.546 147.745 104.15 147.745 105.893V106.354C147.745 108.083 147.496 109.687 146.998 111.167C146.5 112.631 145.767 113.913 144.8 115.012C143.833 116.096 142.64 116.938 141.219 117.539C139.798 118.139 138.157 118.439 136.297 118.439C134.437 118.439 132.789 118.139 131.353 117.539C129.917 116.938 128.716 116.096 127.75 115.012C126.783 113.913 126.05 112.631 125.552 111.167C125.054 109.687 124.805 108.083 124.805 106.354ZM132.21 105.893V106.354C132.21 107.248 132.276 108.083 132.408 108.859C132.54 109.636 132.759 110.317 133.067 110.903C133.375 111.474 133.792 111.921 134.319 112.243C134.847 112.565 135.506 112.727 136.297 112.727C137.073 112.727 137.718 112.565 138.23 112.243C138.758 111.921 139.175 111.474 139.483 110.903C139.791 110.317 140.01 109.636 140.142 108.859C140.274 108.083 140.34 107.248 140.34 106.354V105.893C140.34 105.029 140.274 104.216 140.142 103.454C140.01 102.678 139.791 101.997 139.483 101.411C139.175 100.81 138.758 100.341 138.23 100.004C137.703 99.6675 137.044 99.499 136.253 99.499C135.477 99.499 134.825 99.6675 134.297 100.004C133.785 100.341 133.375 100.81 133.067 101.411C132.759 101.997 132.54 102.678 132.408 103.454C132.276 104.216 132.21 105.029 132.21 105.893ZM158.27 110.925L162.664 94.2256H167.3L165.652 102.597L161.302 118H157.588L158.27 110.925ZM156.534 94.2256L159.258 110.793L159.566 118H155.062L149.437 94.2256H156.534ZM171.211 110.441L173.958 94.2256H181.055L175.474 118H170.97L171.211 110.441ZM167.828 94.2256L172.266 110.881L172.947 118H169.19L164.927 102.641L163.345 94.2256H167.828ZM209.466 86.0078V118H201.753V86.0078H209.466ZM219.09 86.0078V91.9624H192.349V86.0078H219.09ZM216.475 106.354V105.893C216.475 104.15 216.724 102.546 217.222 101.081C217.72 99.6016 218.453 98.3198 219.419 97.2358C220.386 96.1519 221.58 95.3096 223.001 94.709C224.422 94.0938 226.062 93.7861 227.923 93.7861C229.798 93.7861 231.446 94.0938 232.867 94.709C234.302 95.3096 235.503 96.1519 236.47 97.2358C237.437 98.3198 238.169 99.6016 238.667 101.081C239.166 102.546 239.415 104.15 239.415 105.893V106.354C239.415 108.083 239.166 109.687 238.667 111.167C238.169 112.631 237.437 113.913 236.47 115.012C235.503 116.096 234.31 116.938 232.889 117.539C231.468 118.139 229.827 118.439 227.967 118.439C226.106 118.439 224.458 118.139 223.023 117.539C221.587 116.938 220.386 116.096 219.419 115.012C218.453 113.913 217.72 112.631 217.222 111.167C216.724 109.687 216.475 108.083 216.475 106.354ZM223.88 105.893V106.354C223.88 107.248 223.946 108.083 224.078 108.859C224.209 109.636 224.429 110.317 224.737 110.903C225.044 111.474 225.462 111.921 225.989 112.243C226.517 112.565 227.176 112.727 227.967 112.727C228.743 112.727 229.388 112.565 229.9 112.243C230.428 111.921 230.845 111.474 231.153 110.903C231.46 110.317 231.68 109.636 231.812 108.859C231.944 108.083 232.01 107.248 232.01 106.354V105.893C232.01 105.029 231.944 104.216 231.812 103.454C231.68 102.678 231.46 101.997 231.153 101.411C230.845 100.81 230.428 100.341 229.9 100.004C229.373 99.6675 228.714 99.499 227.923 99.499C227.146 99.499 226.495 99.6675 225.967 100.004C225.455 100.341 225.044 100.81 224.737 101.411C224.429 101.997 224.209 102.678 224.078 103.454C223.946 104.216 223.88 105.029 223.88 105.893ZM254.268 86.0078H266.858C269.319 86.0078 271.458 86.374 273.274 87.1064C275.091 87.8389 276.49 88.9229 277.471 90.3584C278.467 91.7939 278.965 93.5664 278.965 95.6758C278.965 97.5068 278.68 99.0376 278.108 100.268C277.537 101.499 276.739 102.517 275.713 103.322C274.703 104.113 273.523 104.765 272.176 105.278L269.649 106.706H259.08L259.036 100.751H266.858C267.84 100.751 268.653 100.576 269.297 100.224C269.942 99.8726 270.425 99.3745 270.748 98.73C271.084 98.0708 271.253 97.2871 271.253 96.3789C271.253 95.4561 271.084 94.665 270.748 94.0059C270.411 93.3467 269.913 92.8413 269.253 92.4897C268.609 92.1382 267.811 91.9624 266.858 91.9624H261.98V118H254.268V86.0078ZM271.78 118L264.705 103.85L272.879 103.806L280.042 117.67V118H271.78ZM297.159 112.221V94.2256H304.585V118H297.642L297.159 112.221ZM297.862 107.387L299.795 107.343C299.795 108.94 299.605 110.419 299.224 111.782C298.843 113.129 298.279 114.301 297.532 115.297C296.8 116.293 295.892 117.07 294.808 117.626C293.738 118.168 292.5 118.439 291.094 118.439C289.922 118.439 288.846 118.278 287.864 117.956C286.897 117.619 286.062 117.099 285.359 116.396C284.656 115.678 284.107 114.763 283.711 113.649C283.331 112.521 283.14 111.174 283.14 109.606V94.2256H290.545V109.65C290.545 110.178 290.611 110.632 290.743 111.013C290.875 111.394 291.065 111.716 291.314 111.979C291.563 112.229 291.871 112.419 292.237 112.551C292.618 112.668 293.05 112.727 293.533 112.727C294.646 112.727 295.518 112.492 296.148 112.023C296.778 111.555 297.217 110.917 297.466 110.112C297.73 109.306 297.862 108.398 297.862 107.387ZM315.945 99.3013V118H308.541V94.2256H315.484L315.945 99.3013ZM315.066 105.3L313.331 105.344C313.331 103.527 313.55 101.909 313.99 100.488C314.429 99.0522 315.052 97.8364 315.857 96.8403C316.663 95.8442 317.623 95.0898 318.736 94.5771C319.864 94.0498 321.116 93.7861 322.493 93.7861C323.592 93.7861 324.595 93.9473 325.503 94.2695C326.426 94.5918 327.217 95.1118 327.876 95.8296C328.55 96.5474 329.063 97.4995 329.415 98.686C329.781 99.8579 329.964 101.308 329.964 103.037V118H322.515V103.015C322.515 102.062 322.383 101.337 322.12 100.839C321.856 100.327 321.475 99.9751 320.977 99.7847C320.479 99.5942 319.871 99.499 319.153 99.499C318.392 99.499 317.747 99.6455 317.22 99.9385C316.692 100.231 316.268 100.642 315.945 101.169C315.638 101.682 315.411 102.29 315.264 102.993C315.132 103.696 315.066 104.465 315.066 105.3ZM345.85 107.871H339.544C339.544 106.582 339.632 105.446 339.808 104.465C339.998 103.469 340.32 102.575 340.774 101.784C341.229 100.993 341.844 100.261 342.62 99.5869C343.309 99.0156 343.902 98.4663 344.4 97.939C344.898 97.4116 345.279 96.877 345.542 96.335C345.806 95.793 345.938 95.2144 345.938 94.5991C345.938 93.8374 345.828 93.2148 345.608 92.7314C345.403 92.248 345.088 91.8892 344.664 91.6548C344.253 91.4058 343.733 91.2812 343.104 91.2812C342.591 91.2812 342.107 91.4058 341.653 91.6548C341.214 91.9038 340.855 92.292 340.577 92.8193C340.298 93.332 340.145 94.0132 340.115 94.8628H332.667C332.71 92.6802 333.194 90.9077 334.117 89.5454C335.054 88.1685 336.299 87.165 337.852 86.5352C339.419 85.8906 341.17 85.5684 343.104 85.5684C345.242 85.5684 347.081 85.8979 348.619 86.5571C350.157 87.2163 351.336 88.1978 352.156 89.5015C352.977 90.7905 353.387 92.3799 353.387 94.2695C353.387 95.5293 353.145 96.6279 352.662 97.5654C352.193 98.4883 351.556 99.3525 350.75 100.158C349.959 100.949 349.073 101.799 348.091 102.707C347.242 103.454 346.663 104.216 346.355 104.992C346.048 105.754 345.879 106.713 345.85 107.871ZM338.643 114.55C338.643 113.496 339.024 112.617 339.786 111.914C340.547 111.196 341.536 110.837 342.752 110.837C343.968 110.837 344.957 111.196 345.718 111.914C346.48 112.617 346.861 113.496 346.861 114.55C346.861 115.605 346.48 116.491 345.718 117.209C344.957 117.912 343.968 118.264 342.752 118.264C341.536 118.264 340.547 117.912 339.786 117.209C339.024 116.491 338.643 115.605 338.643 114.55Z" fill="#424241"/>
<path d="M1363 15C1363 6.71573 1356.28 0 1348 0H1134V167H1348C1356.28 167 1363 160.284 1363 152V15Z" fill="#867DEA"/>
<path d="M1260.77 81.3079C1263.96 81.3079 1267.09 82.2553 1269.74 84.0303C1272.4 85.8053 1274.47 88.3282 1275.69 91.2799C1276.92 94.2316 1277.24 97.4796 1276.61 100.613C1275.99 103.747 1274.45 106.625 1272.19 108.884C1269.93 111.143 1267.05 112.682 1263.92 113.305C1260.79 113.928 1257.54 113.608 1254.59 112.386C1251.64 111.163 1249.11 109.093 1247.34 106.436C1245.56 103.78 1244.62 100.657 1244.62 97.4617C1244.62 93.1774 1246.32 89.0686 1249.35 86.0392C1252.38 83.0098 1256.48 81.3079 1260.77 81.3079ZM1260.77 75.9233C1256.51 75.9233 1252.35 77.1865 1248.8 79.5532C1245.26 81.9198 1242.5 85.2837 1240.87 89.2193C1239.24 93.1549 1238.81 97.4856 1239.64 101.664C1240.48 105.842 1242.53 109.679 1245.54 112.692C1248.55 115.704 1252.39 117.755 1256.57 118.586C1260.75 119.417 1265.08 118.991 1269.01 117.361C1272.95 115.73 1276.31 112.97 1278.68 109.428C1281.04 105.886 1282.31 101.722 1282.31 97.4617C1282.31 91.7493 1280.04 86.271 1276 82.2317C1271.96 78.1925 1266.48 75.9233 1260.77 75.9233Z" fill="white"/>
<path d="M1274.23 49H1220.38C1218.96 49 1217.59 49.5673 1216.58 50.5771C1215.57 51.5869 1215 52.9565 1215 54.3846V108.231C1215 109.659 1215.57 111.028 1216.58 112.038C1217.59 113.048 1218.96 113.615 1220.38 113.615H1231.15V108.231H1220.38V70.5384H1279.62V54.3846C1279.62 52.9565 1279.05 51.5869 1278.04 50.5771C1277.03 49.5673 1275.66 49 1274.23 49ZM1220.38 65.1538V54.3846H1274.23V65.1538H1220.38Z" fill="white"/>
<path d="M1255.38 89.3849V105.539L1268.85 97.4618L1255.38 89.3849Z" fill="white"/>
</svg>
