<svg width="1363" height="301" viewBox="0 0 1363 301" fill="none" xmlns="http://www.w3.org/2000/svg">
<rect width="1363" height="301" rx="15" fill="#F0F0F0"/>
<path d="M0 15C0 6.71573 6.71573 0 15 0H37V301H15C6.71573 301 0 294.284 0 286V15Z" fill="#867DEA"/>
<path d="M104.407 104.898V144H94.981V104.898H104.407ZM119.607 121.173V128.424H101.722V121.173H119.607ZM121.138 104.898V112.176H101.722V104.898H121.138ZM134.19 114.942V144H125.113V114.942H134.19ZM124.576 107.45C124.576 106.161 125.041 105.104 125.972 104.281C126.903 103.457 128.112 103.045 129.598 103.045C131.084 103.045 132.292 103.457 133.223 104.281C134.154 105.104 134.62 106.161 134.62 107.45C134.62 108.739 134.154 109.795 133.223 110.619C132.292 111.442 131.084 111.854 129.598 111.854C128.112 111.854 126.903 111.442 125.972 110.619C125.041 109.795 124.576 108.739 124.576 107.45ZM155.083 114.942V121.227H137.574V114.942H155.083ZM141.253 107.718H150.303V134.52C150.303 135.29 150.393 135.89 150.572 136.319C150.751 136.731 151.055 137.027 151.485 137.206C151.932 137.367 152.523 137.447 153.257 137.447C153.777 137.447 154.206 137.438 154.546 137.42C154.887 137.385 155.209 137.34 155.513 137.286V143.758C154.743 144.009 153.938 144.197 153.096 144.322C152.255 144.465 151.36 144.537 150.411 144.537C148.477 144.537 146.821 144.233 145.442 143.624C144.082 143.015 143.043 142.057 142.327 140.75C141.611 139.444 141.253 137.743 141.253 135.648V107.718ZM167.571 121.146V144H158.521V114.942H167.007L167.571 121.146ZM166.497 128.478L164.375 128.531C164.375 126.311 164.644 124.333 165.181 122.596C165.718 120.842 166.479 119.356 167.464 118.138C168.449 116.921 169.621 115.999 170.982 115.372C172.361 114.728 173.891 114.405 175.574 114.405C176.917 114.405 178.143 114.602 179.253 114.996C180.381 115.39 181.348 116.026 182.154 116.903C182.977 117.78 183.604 118.944 184.034 120.394C184.481 121.826 184.705 123.599 184.705 125.711V144H175.601V125.685C175.601 124.521 175.44 123.635 175.118 123.026C174.795 122.399 174.33 121.97 173.721 121.737C173.112 121.504 172.369 121.388 171.492 121.388C170.561 121.388 169.773 121.567 169.129 121.925C168.484 122.283 167.965 122.784 167.571 123.429C167.195 124.055 166.918 124.798 166.739 125.658C166.578 126.517 166.497 127.457 166.497 128.478ZM203.799 144.537C201.436 144.537 199.323 144.17 197.461 143.436C195.599 142.684 194.024 141.655 192.735 140.348C191.464 139.041 190.488 137.537 189.808 135.836C189.145 134.135 188.814 132.336 188.814 130.438V129.417C188.814 127.287 189.109 125.318 189.7 123.509C190.291 121.683 191.168 120.09 192.332 118.729C193.496 117.368 194.955 116.312 196.709 115.56C198.464 114.79 200.505 114.405 202.833 114.405C204.891 114.405 206.736 114.736 208.365 115.399C209.994 116.061 211.373 117.01 212.5 118.246C213.646 119.481 214.515 120.976 215.105 122.73C215.714 124.485 216.019 126.454 216.019 128.639V132.318H192.278V126.651H207.183V125.953C207.201 124.986 207.031 124.163 206.673 123.482C206.333 122.802 205.831 122.283 205.169 121.925C204.507 121.567 203.701 121.388 202.752 121.388C201.767 121.388 200.953 121.603 200.308 122.032C199.681 122.462 199.189 123.053 198.831 123.805C198.491 124.539 198.249 125.389 198.106 126.356C197.963 127.323 197.891 128.343 197.891 129.417V130.438C197.891 131.512 198.034 132.488 198.321 133.365C198.625 134.243 199.055 134.994 199.61 135.621C200.183 136.23 200.863 136.704 201.651 137.044C202.457 137.385 203.37 137.555 204.39 137.555C205.625 137.555 206.843 137.322 208.042 136.856C209.242 136.391 210.271 135.621 211.131 134.547L215.24 139.435C214.649 140.276 213.807 141.091 212.715 141.878C211.641 142.666 210.352 143.311 208.848 143.812C207.344 144.295 205.661 144.537 203.799 144.537ZM234.925 135.836C234.925 135.335 234.755 134.905 234.415 134.547C234.092 134.171 233.519 133.831 232.696 133.526C231.872 133.204 230.717 132.882 229.231 132.56C227.817 132.255 226.483 131.852 225.23 131.351C223.995 130.85 222.911 130.241 221.98 129.525C221.049 128.809 220.315 127.958 219.778 126.974C219.259 125.989 219 124.861 219 123.59C219 122.354 219.259 121.191 219.778 120.099C220.315 118.989 221.094 118.013 222.115 117.171C223.153 116.312 224.415 115.641 225.901 115.157C227.387 114.656 229.079 114.405 230.977 114.405C233.591 114.405 235.847 114.808 237.745 115.614C239.642 116.402 241.102 117.512 242.122 118.944C243.16 120.358 243.68 121.996 243.68 123.858H234.629C234.629 123.124 234.504 122.498 234.253 121.979C234.021 121.459 233.636 121.065 233.099 120.797C232.562 120.51 231.845 120.367 230.95 120.367C230.324 120.367 229.751 120.484 229.231 120.716C228.73 120.949 228.327 121.271 228.023 121.683C227.719 122.095 227.566 122.578 227.566 123.133C227.566 123.527 227.656 123.885 227.835 124.208C228.032 124.512 228.327 124.798 228.721 125.067C229.115 125.318 229.616 125.55 230.225 125.765C230.834 125.962 231.568 126.141 232.427 126.302C234.379 126.66 236.205 127.171 237.906 127.833C239.607 128.495 240.985 129.435 242.042 130.653C243.116 131.87 243.653 133.508 243.653 135.567C243.653 136.856 243.357 138.047 242.767 139.139C242.176 140.213 241.325 141.162 240.215 141.986C239.105 142.792 237.771 143.418 236.214 143.866C234.656 144.313 232.902 144.537 230.95 144.537C228.175 144.537 225.83 144.045 223.914 143.06C221.998 142.057 220.548 140.804 219.563 139.3C218.597 137.778 218.113 136.239 218.113 134.681H226.546C226.582 135.576 226.797 136.31 227.19 136.883C227.602 137.456 228.148 137.877 228.829 138.146C229.509 138.414 230.297 138.548 231.192 138.548C232.015 138.548 232.696 138.432 233.233 138.199C233.788 137.966 234.209 137.653 234.495 137.259C234.782 136.847 234.925 136.373 234.925 135.836ZM263.204 114.942V121.227H245.694V114.942H263.204ZM249.373 107.718H258.423V134.52C258.423 135.29 258.513 135.89 258.692 136.319C258.871 136.731 259.175 137.027 259.605 137.206C260.053 137.367 260.643 137.447 261.377 137.447C261.897 137.447 262.326 137.438 262.667 137.42C263.007 137.385 263.329 137.34 263.633 137.286V143.758C262.863 144.009 262.058 144.197 261.216 144.322C260.375 144.465 259.48 144.537 258.531 144.537C256.597 144.537 254.941 144.233 253.562 143.624C252.202 143.015 251.163 142.057 250.447 140.75C249.731 139.444 249.373 137.743 249.373 135.648V107.718Z" fill="black"/>
<path d="M99.6733 55.1172V80H94.5635V55.1172H99.6733ZM109.09 65.3369V80H104.151V61.5088H108.782L109.09 65.3369ZM108.406 70.105H107.039C107.039 68.8175 107.193 67.6326 107.5 66.5503C107.819 65.4565 108.281 64.5109 108.885 63.7134C109.5 62.9045 110.258 62.2778 111.158 61.8335C112.058 61.3892 113.1 61.167 114.285 61.167C115.105 61.167 115.857 61.2923 116.541 61.543C117.225 61.7822 117.811 62.1639 118.301 62.688C118.803 63.2007 119.19 63.8729 119.463 64.7046C119.737 65.5249 119.874 66.5104 119.874 67.6611V80H114.952V68.208C114.952 67.3649 114.838 66.7155 114.61 66.2598C114.382 65.804 114.057 65.485 113.636 65.3027C113.226 65.1204 112.73 65.0293 112.149 65.0293C111.511 65.0293 110.953 65.1603 110.474 65.4224C110.007 65.6844 109.62 66.049 109.312 66.5161C109.004 66.9718 108.777 67.5073 108.628 68.1226C108.48 68.7378 108.406 69.3986 108.406 70.105ZM119.412 69.541L117.652 69.7632C117.652 68.5555 117.8 67.4333 118.096 66.3965C118.404 65.3597 118.854 64.4482 119.446 63.6621C120.05 62.876 120.796 62.2664 121.685 61.8335C122.574 61.3892 123.599 61.167 124.761 61.167C125.65 61.167 126.459 61.298 127.188 61.5601C127.917 61.8107 128.538 62.2152 129.051 62.7734C129.575 63.3203 129.974 64.0381 130.247 64.9268C130.532 65.8154 130.674 66.9035 130.674 68.1909V80H125.735V68.1909C125.735 67.3364 125.621 66.687 125.394 66.2427C125.177 65.7869 124.858 65.4736 124.437 65.3027C124.026 65.1204 123.536 65.0293 122.967 65.0293C122.374 65.0293 121.856 65.1489 121.412 65.3882C120.967 65.616 120.597 65.9351 120.301 66.3452C120.005 66.7554 119.782 67.2339 119.634 67.7808C119.486 68.3162 119.412 68.903 119.412 69.541ZM143.543 61.5088V64.9951H132.776V61.5088H143.543ZM135.442 56.9458H140.364V74.4287C140.364 74.9642 140.433 75.3743 140.569 75.6592C140.717 75.944 140.934 76.1434 141.219 76.2573C141.504 76.3599 141.862 76.4111 142.295 76.4111C142.603 76.4111 142.876 76.3997 143.116 76.377C143.366 76.3428 143.577 76.3086 143.748 76.2744L143.765 79.8975C143.344 80.0342 142.888 80.1424 142.398 80.2222C141.908 80.3019 141.367 80.3418 140.774 80.3418C139.692 80.3418 138.746 80.1652 137.938 79.812C137.14 79.4474 136.525 78.8664 136.092 78.0688C135.659 77.2713 135.442 76.2231 135.442 74.9243V56.9458ZM151.541 61.5088V80H146.602V61.5088H151.541ZM146.294 56.6895C146.294 55.9717 146.545 55.3792 147.046 54.9121C147.548 54.445 148.22 54.2114 149.063 54.2114C149.895 54.2114 150.561 54.445 151.062 54.9121C151.575 55.3792 151.832 55.9717 151.832 56.6895C151.832 57.4072 151.575 57.9997 151.062 58.4668C150.561 58.9339 149.895 59.1675 149.063 59.1675C148.22 59.1675 147.548 58.9339 147.046 58.4668C146.545 57.9997 146.294 57.4072 146.294 56.6895ZM164.666 61.5088V64.9951H153.899V61.5088H164.666ZM156.565 56.9458H161.487V74.4287C161.487 74.9642 161.556 75.3743 161.692 75.6592C161.84 75.944 162.057 76.1434 162.342 76.2573C162.627 76.3599 162.986 76.4111 163.418 76.4111C163.726 76.4111 164 76.3997 164.239 76.377C164.489 76.3428 164.7 76.3086 164.871 76.2744L164.888 79.8975C164.467 80.0342 164.011 80.1424 163.521 80.2222C163.031 80.3019 162.49 80.3418 161.897 80.3418C160.815 80.3418 159.869 80.1652 159.061 79.812C158.263 79.4474 157.648 78.8664 157.215 78.0688C156.782 77.2713 156.565 76.2231 156.565 74.9243V56.9458ZM172.271 53.75V80H167.349V53.75H172.271ZM171.57 70.105H170.22C170.232 68.8175 170.403 67.6326 170.733 66.5503C171.063 65.4565 171.536 64.5109 172.151 63.7134C172.767 62.9045 173.501 62.2778 174.356 61.8335C175.222 61.3892 176.179 61.167 177.227 61.167C178.139 61.167 178.965 61.298 179.705 61.5601C180.457 61.8107 181.101 62.2209 181.636 62.7905C182.183 63.3488 182.605 64.0837 182.901 64.9951C183.197 65.9066 183.345 67.0117 183.345 68.3105V80H178.389V68.2764C178.389 67.4561 178.27 66.8123 178.03 66.3452C177.802 65.8667 177.466 65.5306 177.022 65.3369C176.589 65.1318 176.054 65.0293 175.416 65.0293C174.709 65.0293 174.105 65.1603 173.604 65.4224C173.114 65.6844 172.721 66.049 172.425 66.5161C172.129 66.9718 171.912 67.5073 171.775 68.1226C171.639 68.7378 171.57 69.3986 171.57 70.105ZM197.068 75.8301V67.5928C197.068 67.0003 196.972 66.4933 196.778 66.0718C196.584 65.6388 196.282 65.3027 195.872 65.0635C195.473 64.8242 194.955 64.7046 194.317 64.7046C193.77 64.7046 193.297 64.8014 192.898 64.9951C192.5 65.1774 192.192 65.4451 191.976 65.7983C191.759 66.1401 191.651 66.5446 191.651 67.0117H186.729C186.729 66.2256 186.911 65.4793 187.276 64.7729C187.64 64.0666 188.17 63.4456 188.865 62.9102C189.56 62.3633 190.386 61.936 191.343 61.6284C192.312 61.3208 193.394 61.167 194.59 61.167C196.026 61.167 197.302 61.4062 198.418 61.8848C199.535 62.3633 200.412 63.0811 201.05 64.0381C201.7 64.9951 202.024 66.1914 202.024 67.627V75.5396C202.024 76.5535 202.087 77.3853 202.212 78.0347C202.338 78.6727 202.52 79.231 202.759 79.7095V80H197.786C197.547 79.4987 197.365 78.8721 197.239 78.1201C197.125 77.3568 197.068 76.5934 197.068 75.8301ZM197.718 68.7378L197.752 71.5234H195C194.351 71.5234 193.787 71.5975 193.309 71.7456C192.83 71.8937 192.437 72.1045 192.129 72.3779C191.822 72.64 191.594 72.9476 191.446 73.3008C191.309 73.654 191.241 74.0413 191.241 74.4629C191.241 74.8844 191.338 75.2661 191.531 75.6079C191.725 75.9383 192.004 76.2004 192.369 76.394C192.733 76.5763 193.16 76.6675 193.65 76.6675C194.391 76.6675 195.035 76.5194 195.582 76.2231C196.128 75.9269 196.55 75.5623 196.846 75.1294C197.154 74.6965 197.313 74.2863 197.325 73.8989L198.624 75.9839C198.441 76.451 198.191 76.9352 197.872 77.4365C197.564 77.9378 197.171 78.4106 196.692 78.855C196.214 79.2879 195.639 79.6468 194.966 79.9316C194.294 80.2051 193.497 80.3418 192.574 80.3418C191.4 80.3418 190.335 80.1082 189.378 79.6411C188.432 79.1626 187.68 78.5075 187.122 77.6758C186.575 76.8327 186.302 75.8757 186.302 74.8047C186.302 73.8363 186.484 72.9761 186.849 72.2241C187.213 71.4722 187.749 70.8398 188.455 70.3271C189.173 69.8031 190.067 69.41 191.138 69.1479C192.209 68.8745 193.451 68.7378 194.864 68.7378H197.718ZM211.014 53.75V80H206.075V53.75H211.014ZM240.699 65.2515V69.2505H227.71V65.2515H240.699ZM229.231 55.1172V80H224.104V55.1172H229.231ZM244.356 55.1172V80H239.246V55.1172H244.356ZM258.489 75.8301V67.5928C258.489 67.0003 258.392 66.4933 258.199 66.0718C258.005 65.6388 257.703 65.3027 257.293 65.0635C256.894 64.8242 256.376 64.7046 255.738 64.7046C255.191 64.7046 254.718 64.8014 254.319 64.9951C253.921 65.1774 253.613 65.4451 253.396 65.7983C253.18 66.1401 253.072 66.5446 253.072 67.0117H248.15C248.15 66.2256 248.332 65.4793 248.697 64.7729C249.061 64.0666 249.591 63.4456 250.286 62.9102C250.981 62.3633 251.807 61.936 252.764 61.6284C253.733 61.3208 254.815 61.167 256.011 61.167C257.447 61.167 258.723 61.4062 259.839 61.8848C260.956 62.3633 261.833 63.0811 262.471 64.0381C263.121 64.9951 263.445 66.1914 263.445 67.627V75.5396C263.445 76.5535 263.508 77.3853 263.633 78.0347C263.759 78.6727 263.941 79.231 264.18 79.7095V80H259.207C258.968 79.4987 258.785 78.8721 258.66 78.1201C258.546 77.3568 258.489 76.5934 258.489 75.8301ZM259.139 68.7378L259.173 71.5234H256.421C255.772 71.5234 255.208 71.5975 254.729 71.7456C254.251 71.8937 253.858 72.1045 253.55 72.3779C253.243 72.64 253.015 72.9476 252.867 73.3008C252.73 73.654 252.662 74.0413 252.662 74.4629C252.662 74.8844 252.758 75.2661 252.952 75.6079C253.146 75.9383 253.425 76.2004 253.79 76.394C254.154 76.5763 254.581 76.6675 255.071 76.6675C255.812 76.6675 256.456 76.5194 257.002 76.2231C257.549 75.9269 257.971 75.5623 258.267 75.1294C258.575 74.6965 258.734 74.2863 258.746 73.8989L260.044 75.9839C259.862 76.451 259.611 76.9352 259.292 77.4365C258.985 77.9378 258.592 78.4106 258.113 78.855C257.635 79.2879 257.059 79.6468 256.387 79.9316C255.715 80.2051 254.917 80.3418 253.995 80.3418C252.821 80.3418 251.756 80.1082 250.799 79.6411C249.853 79.1626 249.101 78.5075 248.543 77.6758C247.996 76.8327 247.723 75.8757 247.723 74.8047C247.723 73.8363 247.905 72.9761 248.27 72.2241C248.634 71.4722 249.17 70.8398 249.876 70.3271C250.594 69.8031 251.488 69.41 252.559 69.1479C253.63 68.8745 254.872 68.7378 256.285 68.7378H259.139ZM272.435 53.75V80H267.496V53.75H272.435ZM286.482 75.8301V67.5928C286.482 67.0003 286.386 66.4933 286.192 66.0718C285.998 65.6388 285.696 65.3027 285.286 65.0635C284.887 64.8242 284.369 64.7046 283.731 64.7046C283.184 64.7046 282.711 64.8014 282.312 64.9951C281.914 65.1774 281.606 65.4451 281.39 65.7983C281.173 66.1401 281.065 66.5446 281.065 67.0117H276.143C276.143 66.2256 276.325 65.4793 276.69 64.7729C277.055 64.0666 277.584 63.4456 278.279 62.9102C278.974 62.3633 279.8 61.936 280.757 61.6284C281.726 61.3208 282.808 61.167 284.004 61.167C285.44 61.167 286.716 61.4062 287.833 61.8848C288.949 62.3633 289.826 63.0811 290.464 64.0381C291.114 64.9951 291.438 66.1914 291.438 67.627V75.5396C291.438 76.5535 291.501 77.3853 291.626 78.0347C291.752 78.6727 291.934 79.231 292.173 79.7095V80H287.2C286.961 79.4987 286.779 78.8721 286.653 78.1201C286.539 77.3568 286.482 76.5934 286.482 75.8301ZM287.132 68.7378L287.166 71.5234H284.415C283.765 71.5234 283.201 71.5975 282.723 71.7456C282.244 71.8937 281.851 72.1045 281.543 72.3779C281.236 72.64 281.008 72.9476 280.86 73.3008C280.723 73.654 280.655 74.0413 280.655 74.4629C280.655 74.8844 280.752 75.2661 280.945 75.6079C281.139 75.9383 281.418 76.2004 281.783 76.394C282.147 76.5763 282.575 76.6675 283.064 76.6675C283.805 76.6675 284.449 76.5194 284.996 76.2231C285.542 75.9269 285.964 75.5623 286.26 75.1294C286.568 74.6965 286.727 74.2863 286.739 73.8989L288.038 75.9839C287.855 76.451 287.605 76.9352 287.286 77.4365C286.978 77.9378 286.585 78.4106 286.106 78.855C285.628 79.2879 285.053 79.6468 284.38 79.9316C283.708 80.2051 282.911 80.3418 281.988 80.3418C280.814 80.3418 279.749 80.1082 278.792 79.6411C277.846 79.1626 277.094 78.5075 276.536 77.6758C275.989 76.8327 275.716 75.8757 275.716 74.8047C275.716 73.8363 275.898 72.9761 276.263 72.2241C276.627 71.4722 277.163 70.8398 277.869 70.3271C278.587 69.8031 279.481 69.41 280.552 69.1479C281.623 68.8745 282.865 68.7378 284.278 68.7378H287.132ZM300.428 53.75V80H295.489V53.75H300.428ZM303.709 70.9424V70.5835C303.709 69.2277 303.903 67.9801 304.29 66.8408C304.677 65.6901 305.241 64.6932 305.982 63.8501C306.722 63.007 307.634 62.3519 308.716 61.8848C309.799 61.4062 311.041 61.167 312.442 61.167C313.843 61.167 315.091 61.4062 316.185 61.8848C317.278 62.3519 318.195 63.007 318.936 63.8501C319.688 64.6932 320.258 65.6901 320.645 66.8408C321.032 67.9801 321.226 69.2277 321.226 70.5835V70.9424C321.226 72.2868 321.032 73.5343 320.645 74.6851C320.258 75.8244 319.688 76.8213 318.936 77.6758C318.195 78.5189 317.284 79.174 316.202 79.6411C315.119 80.1082 313.877 80.3418 312.476 80.3418C311.075 80.3418 309.827 80.1082 308.733 79.6411C307.651 79.174 306.734 78.5189 305.982 77.6758C305.241 76.8213 304.677 75.8244 304.29 74.6851C303.903 73.5343 303.709 72.2868 303.709 70.9424ZM308.631 70.5835V70.9424C308.631 71.7171 308.699 72.4406 308.836 73.1128C308.973 73.785 309.189 74.3774 309.485 74.8901C309.793 75.3914 310.192 75.7845 310.682 76.0693C311.172 76.3542 311.77 76.4966 312.476 76.4966C313.16 76.4966 313.746 76.3542 314.236 76.0693C314.726 75.7845 315.119 75.3914 315.416 74.8901C315.712 74.3774 315.928 73.785 316.065 73.1128C316.213 72.4406 316.287 71.7171 316.287 70.9424V70.5835C316.287 69.8315 316.213 69.1252 316.065 68.4644C315.928 67.7922 315.706 67.1997 315.398 66.687C315.102 66.1629 314.709 65.7528 314.219 65.4565C313.729 65.1603 313.137 65.0122 312.442 65.0122C311.747 65.0122 311.154 65.1603 310.665 65.4565C310.186 65.7528 309.793 66.1629 309.485 66.687C309.189 67.1997 308.973 67.7922 308.836 68.4644C308.699 69.1252 308.631 69.8315 308.631 70.5835Z" fill="#888888"/>
<rect x="92" y="181" width="1179" height="80" rx="13.3333" fill="#CCCCCC"/>
<rect x="107" y="196.333" width="208" height="49.3333" rx="4.66667" fill="#888888" stroke="#888888" stroke-width="4"/>
<path d="M150.833 213.167H156.802C157.969 213.167 158.983 213.34 159.844 213.687C160.705 214.035 161.368 214.549 161.833 215.229C162.306 215.91 162.542 216.75 162.542 217.75C162.542 218.618 162.406 219.344 162.135 219.927C161.865 220.51 161.486 220.993 161 221.375C160.521 221.75 159.962 222.059 159.323 222.302L158.125 222.979H153.115L153.094 220.156H156.802C157.267 220.156 157.653 220.073 157.958 219.906C158.264 219.74 158.493 219.503 158.646 219.198C158.806 218.885 158.885 218.514 158.885 218.083C158.885 217.646 158.806 217.271 158.646 216.958C158.486 216.646 158.25 216.406 157.937 216.24C157.632 216.073 157.253 215.99 156.802 215.99H154.49V228.333H150.833V213.167ZM159.135 228.333L155.781 221.625L159.656 221.604L163.052 228.177V228.333H159.135ZM170.042 228.542C169.125 228.542 168.306 228.399 167.583 228.115C166.861 227.823 166.25 227.424 165.75 226.917C165.257 226.41 164.878 225.826 164.615 225.167C164.358 224.507 164.229 223.809 164.229 223.073V222.677C164.229 221.851 164.344 221.087 164.573 220.385C164.802 219.677 165.142 219.059 165.594 218.531C166.045 218.003 166.611 217.594 167.292 217.302C167.972 217.003 168.764 216.854 169.667 216.854C170.465 216.854 171.181 216.983 171.813 217.24C172.444 217.497 172.979 217.865 173.417 218.344C173.861 218.823 174.198 219.403 174.427 220.083C174.663 220.764 174.781 221.528 174.781 222.375V223.802H165.573V221.604H171.354V221.333C171.361 220.958 171.295 220.639 171.156 220.375C171.024 220.111 170.83 219.91 170.573 219.771C170.316 219.632 170.003 219.562 169.635 219.562C169.253 219.562 168.938 219.646 168.688 219.812C168.444 219.979 168.253 220.208 168.115 220.5C167.983 220.785 167.889 221.115 167.833 221.49C167.778 221.865 167.75 222.26 167.75 222.677V223.073C167.75 223.49 167.806 223.868 167.917 224.208C168.035 224.549 168.201 224.84 168.417 225.083C168.639 225.319 168.903 225.503 169.208 225.635C169.521 225.767 169.875 225.833 170.271 225.833C170.75 225.833 171.222 225.743 171.688 225.562C172.153 225.382 172.552 225.083 172.885 224.667L174.479 226.562C174.25 226.889 173.924 227.205 173.5 227.51C173.083 227.816 172.583 228.066 172 228.26C171.417 228.448 170.764 228.542 170.042 228.542ZM182.063 225.5V220.854C182.063 220.535 182.017 220.26 181.927 220.031C181.837 219.802 181.694 219.625 181.5 219.5C181.306 219.368 181.045 219.302 180.719 219.302C180.455 219.302 180.229 219.347 180.042 219.437C179.854 219.528 179.712 219.663 179.615 219.844C179.517 220.024 179.469 220.253 179.469 220.531H175.958C175.958 220.01 176.073 219.528 176.302 219.083C176.538 218.632 176.872 218.24 177.302 217.906C177.74 217.573 178.26 217.316 178.865 217.135C179.476 216.948 180.156 216.854 180.906 216.854C181.802 216.854 182.601 217.003 183.302 217.302C184.01 217.601 184.569 218.049 184.979 218.646C185.389 219.236 185.594 219.979 185.594 220.875V225.49C185.594 226.226 185.635 226.785 185.719 227.167C185.802 227.542 185.92 227.872 186.073 228.156V228.333H182.552C182.385 227.986 182.26 227.562 182.177 227.062C182.101 226.556 182.063 226.035 182.063 225.5ZM182.49 221.448L182.51 223.323H180.958C180.632 223.323 180.354 223.368 180.125 223.458C179.903 223.549 179.722 223.674 179.583 223.833C179.451 223.986 179.354 224.16 179.292 224.354C179.236 224.549 179.208 224.753 179.208 224.969C179.208 225.177 179.257 225.365 179.354 225.531C179.458 225.691 179.597 225.816 179.771 225.906C179.944 225.997 180.139 226.042 180.354 226.042C180.743 226.042 181.073 225.969 181.344 225.823C181.622 225.67 181.833 225.486 181.979 225.271C182.125 225.056 182.198 224.854 182.198 224.667L182.969 226.104C182.83 226.382 182.67 226.663 182.49 226.948C182.316 227.233 182.097 227.497 181.833 227.74C181.576 227.976 181.26 228.17 180.885 228.323C180.51 228.469 180.056 228.542 179.521 228.542C178.826 228.542 178.188 228.399 177.604 228.115C177.028 227.83 176.566 227.434 176.219 226.927C175.872 226.413 175.698 225.823 175.698 225.156C175.698 224.573 175.802 224.052 176.01 223.594C176.226 223.135 176.549 222.747 176.979 222.427C177.41 222.108 177.958 221.865 178.625 221.698C179.292 221.531 180.076 221.448 180.979 221.448H182.49ZM192.302 225.833C192.628 225.833 192.906 225.774 193.135 225.656C193.372 225.531 193.549 225.358 193.667 225.135C193.792 224.906 193.851 224.632 193.844 224.312H197.146C197.153 225.16 196.944 225.903 196.521 226.542C196.104 227.174 195.535 227.667 194.812 228.021C194.097 228.368 193.288 228.542 192.385 228.542C191.503 228.542 190.733 228.399 190.073 228.115C189.413 227.823 188.861 227.42 188.417 226.906C187.979 226.385 187.649 225.778 187.427 225.083C187.212 224.389 187.104 223.635 187.104 222.823V222.583C187.104 221.771 187.212 221.017 187.427 220.323C187.649 219.622 187.979 219.014 188.417 218.5C188.861 217.979 189.41 217.576 190.062 217.292C190.722 217 191.49 216.854 192.365 216.854C193.302 216.854 194.128 217.031 194.844 217.385C195.566 217.74 196.132 218.253 196.542 218.927C196.951 219.601 197.153 220.417 197.146 221.375H193.844C193.851 221.035 193.799 220.729 193.687 220.458C193.576 220.187 193.403 219.972 193.167 219.812C192.937 219.646 192.642 219.562 192.281 219.562C191.92 219.562 191.628 219.642 191.406 219.802C191.184 219.962 191.014 220.184 190.896 220.469C190.785 220.747 190.708 221.066 190.667 221.427C190.632 221.788 190.615 222.174 190.615 222.583V222.823C190.615 223.24 190.632 223.632 190.667 224C190.708 224.361 190.788 224.681 190.906 224.958C191.024 225.229 191.194 225.444 191.417 225.604C191.639 225.757 191.934 225.833 192.302 225.833ZM204.583 217.062V219.5H197.792V217.062H204.583ZM199.219 214.26H202.729V224.656C202.729 224.955 202.764 225.187 202.833 225.354C202.903 225.514 203.021 225.628 203.188 225.698C203.361 225.76 203.59 225.792 203.875 225.792C204.076 225.792 204.243 225.788 204.375 225.781C204.507 225.767 204.632 225.75 204.75 225.729V228.24C204.451 228.337 204.139 228.41 203.813 228.458C203.486 228.514 203.139 228.542 202.771 228.542C202.021 228.542 201.378 228.424 200.844 228.187C200.316 227.951 199.913 227.58 199.635 227.073C199.358 226.566 199.219 225.906 199.219 225.094V214.26ZM224.125 213.167V228.333H220.479L215.115 218.896V228.333H211.458V213.167H215.115L220.479 222.604V213.167H224.125ZM232.125 225.5V220.854C232.125 220.535 232.08 220.26 231.99 220.031C231.899 219.802 231.757 219.625 231.563 219.5C231.368 219.368 231.108 219.302 230.781 219.302C230.517 219.302 230.292 219.347 230.104 219.437C229.917 219.528 229.774 219.663 229.677 219.844C229.58 220.024 229.531 220.253 229.531 220.531H226.021C226.021 220.01 226.135 219.528 226.365 219.083C226.601 218.632 226.934 218.24 227.365 217.906C227.802 217.573 228.323 217.316 228.927 217.135C229.538 216.948 230.219 216.854 230.969 216.854C231.865 216.854 232.663 217.003 233.365 217.302C234.073 217.601 234.632 218.049 235.042 218.646C235.451 219.236 235.656 219.979 235.656 220.875V225.49C235.656 226.226 235.698 226.785 235.781 227.167C235.865 227.542 235.983 227.872 236.135 228.156V228.333H232.615C232.448 227.986 232.323 227.562 232.24 227.062C232.163 226.556 232.125 226.035 232.125 225.5ZM232.552 221.448L232.573 223.323H231.021C230.694 223.323 230.417 223.368 230.188 223.458C229.965 223.549 229.785 223.674 229.646 223.833C229.514 223.986 229.417 224.16 229.354 224.354C229.299 224.549 229.271 224.753 229.271 224.969C229.271 225.177 229.319 225.365 229.417 225.531C229.521 225.691 229.66 225.816 229.833 225.906C230.007 225.997 230.201 226.042 230.417 226.042C230.806 226.042 231.135 225.969 231.406 225.823C231.684 225.67 231.896 225.486 232.042 225.271C232.188 225.056 232.26 224.854 232.26 224.667L233.031 226.104C232.892 226.382 232.733 226.663 232.552 226.948C232.378 227.233 232.16 227.497 231.896 227.74C231.639 227.976 231.323 228.17 230.948 228.323C230.573 228.469 230.118 228.542 229.583 228.542C228.889 228.542 228.25 228.399 227.667 228.115C227.09 227.83 226.628 227.434 226.281 226.927C225.934 226.413 225.76 225.823 225.76 225.156C225.76 224.573 225.865 224.052 226.073 223.594C226.288 223.135 226.611 222.747 227.042 222.427C227.472 222.108 228.021 221.865 228.688 221.698C229.354 221.531 230.139 221.448 231.042 221.448H232.552ZM243.542 217.062V219.5H236.75V217.062H243.542ZM238.177 214.26H241.687V224.656C241.687 224.955 241.722 225.187 241.792 225.354C241.861 225.514 241.979 225.628 242.146 225.698C242.319 225.76 242.549 225.792 242.833 225.792C243.035 225.792 243.201 225.788 243.333 225.781C243.465 225.767 243.59 225.75 243.708 225.729V228.24C243.41 228.337 243.097 228.41 242.771 228.458C242.444 228.514 242.097 228.542 241.729 228.542C240.979 228.542 240.337 228.424 239.802 228.187C239.274 227.951 238.872 227.58 238.594 227.073C238.316 226.566 238.177 225.906 238.177 225.094V214.26ZM248.646 217.062V228.333H245.125V217.062H248.646ZM244.917 214.156C244.917 213.656 245.097 213.247 245.458 212.927C245.819 212.608 246.288 212.448 246.865 212.448C247.441 212.448 247.91 212.608 248.271 212.927C248.632 213.247 248.813 213.656 248.813 214.156C248.813 214.656 248.632 215.066 248.271 215.385C247.91 215.705 247.441 215.865 246.865 215.865C246.288 215.865 245.819 215.705 245.458 215.385C245.097 215.066 244.917 214.656 244.917 214.156ZM254.875 225.927L257.094 217.062H260.792L257.104 228.333H254.917L254.875 225.927ZM253.563 217.062L255.75 225.927L255.729 228.333H253.531L249.854 217.062H253.563ZM267.146 228.542C266.229 228.542 265.41 228.399 264.688 228.115C263.965 227.823 263.354 227.424 262.854 226.917C262.361 226.41 261.983 225.826 261.719 225.167C261.462 224.507 261.333 223.809 261.333 223.073V222.677C261.333 221.851 261.448 221.087 261.677 220.385C261.906 219.677 262.247 219.059 262.698 218.531C263.149 218.003 263.715 217.594 264.396 217.302C265.076 217.003 265.868 216.854 266.771 216.854C267.569 216.854 268.285 216.983 268.917 217.24C269.549 217.497 270.083 217.865 270.521 218.344C270.965 218.823 271.302 219.403 271.531 220.083C271.767 220.764 271.885 221.528 271.885 222.375V223.802H262.677V221.604H268.458V221.333C268.465 220.958 268.399 220.639 268.26 220.375C268.128 220.111 267.934 219.91 267.677 219.771C267.42 219.632 267.108 219.562 266.74 219.562C266.358 219.562 266.042 219.646 265.792 219.812C265.549 219.979 265.358 220.208 265.219 220.5C265.087 220.785 264.993 221.115 264.938 221.49C264.882 221.865 264.854 222.26 264.854 222.677V223.073C264.854 223.49 264.91 223.868 265.021 224.208C265.139 224.549 265.306 224.84 265.521 225.083C265.743 225.319 266.007 225.503 266.313 225.635C266.625 225.767 266.979 225.833 267.375 225.833C267.854 225.833 268.326 225.743 268.792 225.562C269.257 225.382 269.656 225.083 269.99 224.667L271.583 226.562C271.354 226.889 271.028 227.205 270.604 227.51C270.188 227.816 269.688 228.066 269.104 228.26C268.521 228.448 267.868 228.542 267.146 228.542Z" fill="white"/>
<rect x="339" y="196.333" width="208" height="49.3333" rx="4.66667" fill="#888888" stroke="#888888" stroke-width="4"/>
<path d="M419.073 225.521V228.333H411.406V225.521H419.073ZM412.708 213.167V228.333H409.052V213.167H412.708ZM426.302 225.5V220.854C426.302 220.535 426.257 220.26 426.167 220.031C426.076 219.802 425.934 219.625 425.74 219.5C425.545 219.368 425.285 219.302 424.958 219.302C424.694 219.302 424.469 219.347 424.281 219.437C424.094 219.528 423.951 219.663 423.854 219.844C423.757 220.024 423.708 220.253 423.708 220.531H420.198C420.198 220.01 420.312 219.528 420.542 219.083C420.778 218.632 421.111 218.24 421.542 217.906C421.979 217.573 422.5 217.316 423.104 217.135C423.715 216.948 424.396 216.854 425.146 216.854C426.042 216.854 426.84 217.003 427.542 217.302C428.25 217.601 428.809 218.049 429.219 218.646C429.628 219.236 429.833 219.979 429.833 220.875V225.49C429.833 226.226 429.875 226.785 429.958 227.167C430.042 227.542 430.16 227.872 430.312 228.156V228.333H426.792C426.625 227.986 426.5 227.562 426.417 227.062C426.34 226.556 426.302 226.035 426.302 225.5ZM426.729 221.448L426.75 223.323H425.198C424.872 223.323 424.594 223.368 424.365 223.458C424.142 223.549 423.962 223.674 423.823 223.833C423.691 223.986 423.594 224.16 423.531 224.354C423.476 224.549 423.448 224.753 423.448 224.969C423.448 225.177 423.497 225.365 423.594 225.531C423.698 225.691 423.837 225.816 424.01 225.906C424.184 225.997 424.378 226.042 424.594 226.042C424.983 226.042 425.312 225.969 425.583 225.823C425.861 225.67 426.073 225.486 426.219 225.271C426.365 225.056 426.437 224.854 426.437 224.667L427.208 226.104C427.069 226.382 426.91 226.663 426.729 226.948C426.556 227.233 426.337 227.497 426.073 227.74C425.816 227.976 425.5 228.17 425.125 228.323C424.75 228.469 424.295 228.542 423.76 228.542C423.066 228.542 422.427 228.399 421.844 228.115C421.267 227.83 420.806 227.434 420.458 226.927C420.111 226.413 419.937 225.823 419.937 225.156C419.937 224.573 420.042 224.052 420.25 223.594C420.465 223.135 420.788 222.747 421.219 222.427C421.649 222.108 422.198 221.865 422.865 221.698C423.531 221.531 424.316 221.448 425.219 221.448H426.729ZM435.323 219.854V228.333H431.812V217.062H435.094L435.323 219.854ZM438.656 216.979L438.594 220.24C438.455 220.226 438.267 220.208 438.031 220.187C437.795 220.167 437.597 220.156 437.437 220.156C437.028 220.156 436.674 220.205 436.375 220.302C436.083 220.392 435.84 220.531 435.646 220.719C435.458 220.899 435.319 221.128 435.229 221.406C435.146 221.684 435.108 222.007 435.115 222.375L434.479 221.958C434.479 221.201 434.552 220.514 434.698 219.896C434.851 219.271 435.066 218.733 435.344 218.281C435.622 217.823 435.958 217.472 436.354 217.229C436.75 216.979 437.194 216.854 437.687 216.854C437.861 216.854 438.031 216.865 438.198 216.885C438.372 216.906 438.524 216.937 438.656 216.979ZM445.406 225.5V220.854C445.406 220.535 445.361 220.26 445.271 220.031C445.181 219.802 445.038 219.625 444.844 219.5C444.649 219.368 444.389 219.302 444.063 219.302C443.799 219.302 443.573 219.347 443.385 219.437C443.198 219.528 443.056 219.663 442.958 219.844C442.861 220.024 442.813 220.253 442.813 220.531H439.302C439.302 220.01 439.417 219.528 439.646 219.083C439.882 218.632 440.215 218.24 440.646 217.906C441.083 217.573 441.604 217.316 442.208 217.135C442.819 216.948 443.5 216.854 444.25 216.854C445.146 216.854 445.944 217.003 446.646 217.302C447.354 217.601 447.913 218.049 448.323 218.646C448.733 219.236 448.938 219.979 448.938 220.875V225.49C448.938 226.226 448.979 226.785 449.063 227.167C449.146 227.542 449.264 227.872 449.417 228.156V228.333H445.896C445.729 227.986 445.604 227.562 445.521 227.062C445.444 226.556 445.406 226.035 445.406 225.5ZM445.833 221.448L445.854 223.323H444.302C443.976 223.323 443.698 223.368 443.469 223.458C443.247 223.549 443.066 223.674 442.927 223.833C442.795 223.986 442.698 224.16 442.635 224.354C442.58 224.549 442.552 224.753 442.552 224.969C442.552 225.177 442.601 225.365 442.698 225.531C442.802 225.691 442.941 225.816 443.115 225.906C443.288 225.997 443.483 226.042 443.698 226.042C444.087 226.042 444.417 225.969 444.688 225.823C444.965 225.67 445.177 225.486 445.323 225.271C445.469 225.056 445.542 224.854 445.542 224.667L446.313 226.104C446.174 226.382 446.014 226.663 445.833 226.948C445.66 227.233 445.441 227.497 445.177 227.74C444.92 227.976 444.604 228.17 444.229 228.323C443.854 228.469 443.399 228.542 442.865 228.542C442.17 228.542 441.531 228.399 440.948 228.115C440.372 227.83 439.91 227.434 439.563 226.927C439.215 226.413 439.042 225.823 439.042 225.156C439.042 224.573 439.146 224.052 439.354 223.594C439.569 223.135 439.892 222.747 440.323 222.427C440.753 222.108 441.302 221.865 441.969 221.698C442.635 221.531 443.42 221.448 444.323 221.448H445.833ZM454.781 225.927L457 217.062H460.698L457.01 228.333H454.823L454.781 225.927ZM453.469 217.062L455.656 225.927L455.635 228.333H453.437L449.76 217.062H453.469ZM467.052 228.542C466.135 228.542 465.316 228.399 464.594 228.115C463.872 227.823 463.26 227.424 462.76 226.917C462.267 226.41 461.889 225.826 461.625 225.167C461.368 224.507 461.24 223.809 461.24 223.073V222.677C461.24 221.851 461.354 221.087 461.583 220.385C461.812 219.677 462.153 219.059 462.604 218.531C463.056 218.003 463.622 217.594 464.302 217.302C464.983 217.003 465.774 216.854 466.677 216.854C467.476 216.854 468.191 216.983 468.823 217.24C469.455 217.497 469.99 217.865 470.427 218.344C470.872 218.823 471.208 219.403 471.437 220.083C471.674 220.764 471.792 221.528 471.792 222.375V223.802H462.583V221.604H468.365V221.333C468.372 220.958 468.306 220.639 468.167 220.375C468.035 220.111 467.84 219.91 467.583 219.771C467.326 219.632 467.014 219.562 466.646 219.562C466.264 219.562 465.948 219.646 465.698 219.812C465.455 219.979 465.264 220.208 465.125 220.5C464.993 220.785 464.899 221.115 464.844 221.49C464.788 221.865 464.76 222.26 464.76 222.677V223.073C464.76 223.49 464.816 223.868 464.927 224.208C465.045 224.549 465.212 224.84 465.427 225.083C465.649 225.319 465.913 225.503 466.219 225.635C466.531 225.767 466.885 225.833 467.281 225.833C467.76 225.833 468.233 225.743 468.698 225.562C469.163 225.382 469.562 225.083 469.896 224.667L471.49 226.562C471.26 226.889 470.934 227.205 470.51 227.51C470.094 227.816 469.594 228.066 469.01 228.26C468.427 228.448 467.774 228.542 467.052 228.542ZM476.927 212.333V228.333H473.406V212.333H476.927Z" fill="white"/>
<rect x="571" y="196.333" width="208" height="49.3333" rx="4.66667" fill="#888888" stroke="#888888" stroke-width="4"/>
<path d="M643.26 213.167H646.24L649.625 223.719L653.01 213.167H655.99L650.833 228.333H648.417L643.26 213.167ZM641.448 213.167H644.531L645.104 224.792V228.333H641.448V213.167ZM654.719 213.167H657.812V228.333H654.146V224.792L654.719 213.167ZM663.448 227.01L666.365 217.062H670.135L665.604 230.01C665.507 230.295 665.378 230.601 665.219 230.927C665.059 231.26 664.84 231.576 664.563 231.875C664.285 232.174 663.927 232.417 663.49 232.604C663.059 232.792 662.524 232.885 661.885 232.885C661.545 232.885 661.295 232.868 661.135 232.833C660.983 232.806 660.747 232.753 660.427 232.677V230.167C660.517 230.167 660.594 230.167 660.656 230.167C660.726 230.167 660.802 230.167 660.885 230.167C661.26 230.167 661.559 230.128 661.781 230.052C662.01 229.976 662.184 229.865 662.302 229.719C662.427 229.573 662.524 229.396 662.594 229.187L663.448 227.01ZM662.708 217.062L664.927 224.948L665.313 228.667H662.958L658.948 217.062H662.708ZM679.031 224.302C679.031 224.066 678.997 223.854 678.927 223.667C678.858 223.472 678.729 223.292 678.542 223.125C678.354 222.958 678.083 222.792 677.729 222.625C677.382 222.451 676.924 222.271 676.354 222.083C675.688 221.861 675.045 221.611 674.427 221.333C673.809 221.049 673.257 220.719 672.771 220.344C672.285 219.962 671.899 219.517 671.615 219.01C671.33 218.497 671.188 217.899 671.188 217.219C671.188 216.566 671.333 215.979 671.625 215.458C671.917 214.931 672.323 214.483 672.844 214.115C673.372 213.74 673.99 213.455 674.698 213.26C675.406 213.059 676.181 212.958 677.021 212.958C678.132 212.958 679.111 213.153 679.958 213.542C680.813 213.924 681.479 214.469 681.958 215.177C682.444 215.878 682.688 216.708 682.688 217.667H679.052C679.052 217.285 678.972 216.948 678.813 216.656C678.66 216.365 678.427 216.135 678.115 215.969C677.802 215.802 677.41 215.719 676.938 215.719C676.479 215.719 676.094 215.788 675.781 215.927C675.469 216.066 675.233 216.253 675.073 216.49C674.913 216.719 674.833 216.972 674.833 217.25C674.833 217.479 674.896 217.687 675.021 217.875C675.153 218.056 675.337 218.226 675.573 218.385C675.816 218.545 676.108 218.698 676.448 218.844C676.795 218.99 677.184 219.132 677.615 219.271C678.42 219.528 679.135 219.816 679.76 220.135C680.392 220.448 680.924 220.806 681.354 221.208C681.792 221.604 682.122 222.056 682.344 222.562C682.573 223.069 682.688 223.642 682.688 224.281C682.688 224.962 682.556 225.566 682.292 226.094C682.028 226.622 681.649 227.069 681.156 227.437C680.663 227.799 680.073 228.073 679.385 228.26C678.698 228.448 677.931 228.542 677.083 228.542C676.306 228.542 675.538 228.444 674.781 228.25C674.031 228.049 673.351 227.743 672.74 227.333C672.128 226.917 671.639 226.385 671.271 225.74C670.91 225.087 670.729 224.312 670.729 223.417H674.396C674.396 223.861 674.455 224.236 674.573 224.542C674.691 224.847 674.865 225.094 675.094 225.281C675.323 225.462 675.604 225.594 675.938 225.677C676.271 225.753 676.653 225.792 677.083 225.792C677.549 225.792 677.924 225.726 678.208 225.594C678.493 225.455 678.701 225.274 678.833 225.052C678.965 224.823 679.031 224.573 679.031 224.302ZM693.031 225.833L697.26 229.187L694.99 231.104L690.833 227.75L693.031 225.833ZM697.437 220.448V221.062C697.437 222.222 697.274 223.264 696.948 224.187C696.628 225.104 696.17 225.889 695.573 226.542C694.983 227.187 694.285 227.684 693.479 228.031C692.674 228.372 691.785 228.542 690.812 228.542C689.833 228.542 688.937 228.372 688.125 228.031C687.319 227.684 686.618 227.187 686.021 226.542C685.431 225.889 684.972 225.104 684.646 224.187C684.326 223.264 684.167 222.222 684.167 221.062V220.448C684.167 219.288 684.326 218.247 684.646 217.323C684.972 216.399 685.427 215.615 686.01 214.969C686.601 214.316 687.299 213.819 688.104 213.479C688.917 213.132 689.812 212.958 690.792 212.958C691.764 212.958 692.653 213.132 693.458 213.479C694.271 213.819 694.972 214.316 695.562 214.969C696.16 215.615 696.622 216.399 696.948 217.323C697.274 218.247 697.437 219.288 697.437 220.448ZM693.719 221.062V220.427C693.719 219.677 693.653 219.017 693.521 218.448C693.396 217.872 693.208 217.389 692.958 217C692.708 216.611 692.399 216.319 692.031 216.125C691.67 215.924 691.257 215.823 690.792 215.823C690.306 215.823 689.882 215.924 689.521 216.125C689.16 216.319 688.858 216.611 688.615 217C688.372 217.389 688.187 217.872 688.062 218.448C687.944 219.017 687.885 219.677 687.885 220.427V221.062C687.885 221.806 687.944 222.465 688.062 223.042C688.187 223.611 688.372 224.094 688.615 224.49C688.865 224.885 689.17 225.184 689.531 225.385C689.899 225.587 690.326 225.687 690.812 225.687C691.278 225.687 691.691 225.587 692.052 225.385C692.413 225.184 692.715 224.885 692.958 224.49C693.208 224.094 693.396 223.611 693.521 223.042C693.653 222.465 693.719 221.806 693.719 221.062ZM709.323 225.521V228.333H701.656V225.521H709.323ZM702.958 213.167V228.333H699.302V213.167H702.958Z" fill="white"/>
<rect x="803" y="196.333" width="208" height="49.3333" rx="4.66667" fill="#888888" stroke="#888888" stroke-width="4"/>
<path d="M870.333 213.167V228.333H866.677V213.167H870.333ZM876.229 219.479V222.292H869.292V219.479H876.229ZM876.823 213.167V215.99H869.292V213.167H876.823ZM881.885 217.062V228.333H878.365V217.062H881.885ZM878.156 214.156C878.156 213.656 878.337 213.247 878.698 212.927C879.059 212.608 879.528 212.448 880.104 212.448C880.681 212.448 881.149 212.608 881.51 212.927C881.872 213.247 882.052 213.656 882.052 214.156C882.052 214.656 881.872 215.066 881.51 215.385C881.149 215.705 880.681 215.865 880.104 215.865C879.528 215.865 879.059 215.705 878.698 215.385C878.337 215.066 878.156 214.656 878.156 214.156ZM887.594 219.854V228.333H884.083V217.062H887.365L887.594 219.854ZM890.927 216.979L890.865 220.24C890.726 220.226 890.538 220.208 890.302 220.187C890.066 220.167 889.868 220.156 889.708 220.156C889.299 220.156 888.944 220.205 888.646 220.302C888.354 220.392 888.111 220.531 887.917 220.719C887.729 220.899 887.59 221.128 887.5 221.406C887.417 221.684 887.378 222.007 887.385 222.375L886.75 221.958C886.75 221.201 886.823 220.514 886.969 219.896C887.122 219.271 887.337 218.733 887.615 218.281C887.892 217.823 888.229 217.472 888.625 217.229C889.021 216.979 889.465 216.854 889.958 216.854C890.132 216.854 890.302 216.865 890.469 216.885C890.642 216.906 890.795 216.937 890.927 216.979ZM897.385 228.542C896.469 228.542 895.649 228.399 894.927 228.115C894.205 227.823 893.594 227.424 893.094 226.917C892.601 226.41 892.222 225.826 891.958 225.167C891.701 224.507 891.573 223.809 891.573 223.073V222.677C891.573 221.851 891.688 221.087 891.917 220.385C892.146 219.677 892.486 219.059 892.938 218.531C893.389 218.003 893.955 217.594 894.635 217.302C895.316 217.003 896.108 216.854 897.01 216.854C897.809 216.854 898.524 216.983 899.156 217.24C899.788 217.497 900.323 217.865 900.76 218.344C901.205 218.823 901.542 219.403 901.771 220.083C902.007 220.764 902.125 221.528 902.125 222.375V223.802H892.917V221.604H898.698V221.333C898.705 220.958 898.639 220.639 898.5 220.375C898.368 220.111 898.174 219.91 897.917 219.771C897.66 219.632 897.347 219.562 896.979 219.562C896.597 219.562 896.281 219.646 896.031 219.812C895.788 219.979 895.597 220.208 895.458 220.5C895.326 220.785 895.233 221.115 895.177 221.49C895.122 221.865 895.094 222.26 895.094 222.677V223.073C895.094 223.49 895.149 223.868 895.26 224.208C895.378 224.549 895.545 224.84 895.76 225.083C895.983 225.319 896.247 225.503 896.552 225.635C896.865 225.767 897.219 225.833 897.615 225.833C898.094 225.833 898.566 225.743 899.031 225.562C899.497 225.382 899.896 225.083 900.229 224.667L901.823 226.562C901.594 226.889 901.267 227.205 900.844 227.51C900.427 227.816 899.927 228.066 899.344 228.26C898.76 228.448 898.108 228.542 897.385 228.542ZM903.583 212.333H907.094V225.562L906.729 228.333H903.583V212.333ZM914.01 222.573V222.792C914.01 223.646 913.924 224.424 913.75 225.125C913.576 225.826 913.309 226.434 912.948 226.948C912.587 227.455 912.132 227.847 911.583 228.125C911.035 228.403 910.385 228.542 909.635 228.542C908.955 228.542 908.372 228.396 907.885 228.104C907.399 227.806 906.993 227.396 906.667 226.875C906.34 226.347 906.076 225.74 905.875 225.052C905.674 224.358 905.514 223.615 905.396 222.823V222.562C905.514 221.778 905.674 221.042 905.875 220.354C906.076 219.66 906.34 219.052 906.667 218.531C906.993 218.003 907.396 217.594 907.875 217.302C908.361 217.003 908.941 216.854 909.615 216.854C910.372 216.854 911.024 216.997 911.573 217.281C912.128 217.566 912.587 217.965 912.948 218.479C913.309 218.993 913.576 219.597 913.75 220.292C913.924 220.986 914.01 221.747 914.01 222.573ZM910.5 222.792V222.573C910.5 222.163 910.476 221.778 910.427 221.417C910.378 221.056 910.292 220.736 910.167 220.458C910.042 220.181 909.865 219.962 909.635 219.802C909.406 219.642 909.108 219.562 908.74 219.562C908.365 219.562 908.049 219.625 907.792 219.75C907.542 219.875 907.34 220.056 907.188 220.292C907.042 220.521 906.938 220.806 906.875 221.146C906.813 221.479 906.785 221.858 906.792 222.281V223.104C906.778 223.681 906.83 224.174 906.948 224.583C907.066 224.993 907.271 225.306 907.563 225.521C907.854 225.736 908.253 225.844 908.76 225.844C909.135 225.844 909.438 225.771 909.667 225.625C909.903 225.479 910.08 225.271 910.198 225C910.316 224.729 910.396 224.406 910.438 224.031C910.479 223.656 910.5 223.243 910.5 222.792ZM921.427 225.5V220.854C921.427 220.535 921.382 220.26 921.292 220.031C921.201 219.802 921.059 219.625 920.865 219.5C920.67 219.368 920.41 219.302 920.083 219.302C919.819 219.302 919.594 219.347 919.406 219.437C919.219 219.528 919.076 219.663 918.979 219.844C918.882 220.024 918.833 220.253 918.833 220.531H915.323C915.323 220.01 915.437 219.528 915.667 219.083C915.903 218.632 916.236 218.24 916.667 217.906C917.104 217.573 917.625 217.316 918.229 217.135C918.84 216.948 919.521 216.854 920.271 216.854C921.167 216.854 921.965 217.003 922.667 217.302C923.375 217.601 923.934 218.049 924.344 218.646C924.753 219.236 924.958 219.979 924.958 220.875V225.49C924.958 226.226 925 226.785 925.083 227.167C925.167 227.542 925.285 227.872 925.437 228.156V228.333H921.917C921.75 227.986 921.625 227.562 921.542 227.062C921.465 226.556 921.427 226.035 921.427 225.5ZM921.854 221.448L921.875 223.323H920.323C919.997 223.323 919.719 223.368 919.49 223.458C919.267 223.549 919.087 223.674 918.948 223.833C918.816 223.986 918.719 224.16 918.656 224.354C918.601 224.549 918.573 224.753 918.573 224.969C918.573 225.177 918.622 225.365 918.719 225.531C918.823 225.691 918.962 225.816 919.135 225.906C919.309 225.997 919.503 226.042 919.719 226.042C920.108 226.042 920.437 225.969 920.708 225.823C920.986 225.67 921.198 225.486 921.344 225.271C921.49 225.056 921.562 224.854 921.562 224.667L922.333 226.104C922.194 226.382 922.035 226.663 921.854 226.948C921.681 227.233 921.462 227.497 921.198 227.74C920.941 227.976 920.625 228.17 920.25 228.323C919.875 228.469 919.42 228.542 918.885 228.542C918.191 228.542 917.552 228.399 916.969 228.115C916.392 227.83 915.931 227.434 915.583 226.927C915.236 226.413 915.062 225.823 915.062 225.156C915.062 224.573 915.167 224.052 915.375 223.594C915.59 223.135 915.913 222.747 916.344 222.427C916.774 222.108 917.323 221.865 917.99 221.698C918.656 221.531 919.441 221.448 920.344 221.448H921.854ZM932.812 225.167C932.812 224.972 932.747 224.806 932.615 224.667C932.49 224.521 932.267 224.389 931.948 224.271C931.628 224.146 931.181 224.021 930.604 223.896C930.056 223.778 929.538 223.622 929.052 223.427C928.573 223.233 928.153 222.997 927.792 222.719C927.431 222.441 927.146 222.111 926.937 221.729C926.736 221.347 926.635 220.91 926.635 220.417C926.635 219.937 926.736 219.486 926.937 219.062C927.146 218.632 927.448 218.253 927.844 217.927C928.247 217.594 928.736 217.333 929.312 217.146C929.889 216.951 930.545 216.854 931.281 216.854C932.295 216.854 933.17 217.01 933.906 217.323C934.642 217.628 935.208 218.059 935.604 218.615C936.007 219.163 936.208 219.799 936.208 220.521H932.698C932.698 220.236 932.649 219.993 932.552 219.792C932.462 219.59 932.312 219.437 932.104 219.333C931.896 219.222 931.618 219.167 931.271 219.167C931.028 219.167 930.806 219.212 930.604 219.302C930.41 219.392 930.253 219.517 930.135 219.677C930.017 219.837 929.958 220.024 929.958 220.24C929.958 220.392 929.993 220.531 930.062 220.656C930.139 220.774 930.253 220.885 930.406 220.99C930.559 221.087 930.753 221.177 930.99 221.26C931.226 221.337 931.51 221.406 931.844 221.469C932.601 221.608 933.309 221.806 933.969 222.062C934.628 222.319 935.163 222.684 935.573 223.156C935.99 223.628 936.198 224.264 936.198 225.062C936.198 225.562 936.083 226.024 935.854 226.448C935.625 226.865 935.295 227.233 934.865 227.552C934.434 227.865 933.917 228.108 933.312 228.281C932.708 228.455 932.028 228.542 931.271 228.542C930.194 228.542 929.285 228.351 928.542 227.969C927.799 227.58 927.236 227.094 926.854 226.51C926.479 225.92 926.292 225.323 926.292 224.719H929.562C929.576 225.066 929.66 225.351 929.812 225.573C929.972 225.795 930.184 225.958 930.448 226.062C930.712 226.167 931.017 226.219 931.365 226.219C931.684 226.219 931.948 226.174 932.156 226.083C932.372 225.993 932.535 225.872 932.646 225.719C932.757 225.559 932.812 225.375 932.812 225.167ZM943.302 228.542C942.385 228.542 941.566 228.399 940.844 228.115C940.122 227.823 939.51 227.424 939.01 226.917C938.517 226.41 938.139 225.826 937.875 225.167C937.618 224.507 937.49 223.809 937.49 223.073V222.677C937.49 221.851 937.604 221.087 937.833 220.385C938.062 219.677 938.403 219.059 938.854 218.531C939.306 218.003 939.872 217.594 940.552 217.302C941.233 217.003 942.024 216.854 942.927 216.854C943.726 216.854 944.441 216.983 945.073 217.24C945.705 217.497 946.24 217.865 946.677 218.344C947.122 218.823 947.458 219.403 947.687 220.083C947.924 220.764 948.042 221.528 948.042 222.375V223.802H938.833V221.604H944.615V221.333C944.622 220.958 944.556 220.639 944.417 220.375C944.285 220.111 944.09 219.91 943.833 219.771C943.576 219.632 943.264 219.562 942.896 219.562C942.514 219.562 942.198 219.646 941.948 219.812C941.705 219.979 941.514 220.208 941.375 220.5C941.243 220.785 941.149 221.115 941.094 221.49C941.038 221.865 941.01 222.26 941.01 222.677V223.073C941.01 223.49 941.066 223.868 941.177 224.208C941.295 224.549 941.462 224.84 941.677 225.083C941.899 225.319 942.163 225.503 942.469 225.635C942.781 225.767 943.135 225.833 943.531 225.833C944.01 225.833 944.483 225.743 944.948 225.562C945.413 225.382 945.812 225.083 946.146 224.667L947.74 226.562C947.51 226.889 947.184 227.205 946.76 227.51C946.344 227.816 945.844 228.066 945.26 228.26C944.677 228.448 944.024 228.542 943.302 228.542Z" fill="white"/>
</svg>
